<?xml version="1.0" encoding="UTF-8"?>
<!DOCTYPE svg PUBLIC "-//W3C//DTD SVG 1.1//EN" "http://www.w3.org/Graphics/SVG/1.1/DTD/svg11.dtd">
<svg width="277mm" height="172mm" viewBox="0 0 27700 17200" version="1.1" baseProfile="tiny" xmlns="http://www.w3.org/2000/svg" stroke-width="28.222" stroke-linejoin="round" xml:space="preserve">
 <path fill="rgb(255,255,255)" stroke="none" d="M 13865,17213 L 0,17213 0,0 27729,0 27729,17213 13865,17213 Z"/>
 <path fill="none" stroke="rgb(179,179,179)" stroke-linejoin="round" d="M 12141,14076 L 3352,14076 3352,675 20929,675 20929,14076 12141,14076 Z"/>
 <path fill="none" stroke="rgb(179,179,179)" stroke-linejoin="round" d="M 20929,14075 L 3352,14075"/>
 <path fill="none" stroke="rgb(179,179,179)" stroke-linejoin="round" d="M 20929,12160 L 3352,12160"/>
 <path fill="none" stroke="rgb(179,179,179)" stroke-linejoin="round" d="M 20929,10245 L 3352,10245"/>
 <path fill="none" stroke="rgb(179,179,179)" stroke-linejoin="round" d="M 20929,8332 L 3352,8332"/>
 <path fill="none" stroke="rgb(179,179,179)" stroke-linejoin="round" d="M 20929,6417 L 3352,6417"/>
 <path fill="none" stroke="rgb(179,179,179)" stroke-linejoin="round" d="M 20929,4503 L 3352,4503"/>
 <path fill="none" stroke="rgb(179,179,179)" stroke-linejoin="round" d="M 20929,2588 L 3352,2588"/>
 <path fill="none" stroke="rgb(179,179,179)" stroke-linejoin="round" d="M 20929,673 L 3352,673"/>
 <path fill="none" stroke="rgb(179,179,179)" stroke-linejoin="round" d="M 3351,14225 L 3351,14075"/>
 <path fill="none" stroke="rgb(179,179,179)" stroke-linejoin="round" d="M 3351,14225 L 3351,14075"/>
 <path fill="none" stroke="rgb(179,179,179)" stroke-linejoin="round" d="M 7746,14225 L 7746,14075"/>
 <path fill="none" stroke="rgb(179,179,179)" stroke-linejoin="round" d="M 7746,14225 L 7746,14075"/>
 <path fill="none" stroke="rgb(179,179,179)" stroke-linejoin="round" d="M 12141,14225 L 12141,14075"/>
 <path fill="none" stroke="rgb(179,179,179)" stroke-linejoin="round" d="M 12141,14225 L 12141,14075"/>
 <path fill="none" stroke="rgb(179,179,179)" stroke-linejoin="round" d="M 16534,14225 L 16534,14075"/>
 <path fill="none" stroke="rgb(179,179,179)" stroke-linejoin="round" d="M 16534,14225 L 16534,14075"/>
 <path fill="none" stroke="rgb(179,179,179)" stroke-linejoin="round" d="M 20929,14225 L 20929,14075"/>
 <path fill="none" stroke="rgb(179,179,179)" stroke-linejoin="round" d="M 20929,14225 L 20929,14075"/>
 <path fill="none" stroke="rgb(179,179,179)" stroke-linejoin="round" d="M 3352,14075 L 20929,14075"/>
 <path fill="none" stroke="rgb(179,179,179)" stroke-linejoin="round" d="M 3202,14075 L 3352,14075"/>
 <path fill="none" stroke="rgb(179,179,179)" stroke-linejoin="round" d="M 3202,14075 L 3352,14075"/>
 <path fill="none" stroke="rgb(179,179,179)" stroke-linejoin="round" d="M 3202,12160 L 3352,12160"/>
 <path fill="none" stroke="rgb(179,179,179)" stroke-linejoin="round" d="M 3202,12160 L 3352,12160"/>
 <path fill="none" stroke="rgb(179,179,179)" stroke-linejoin="round" d="M 3202,10245 L 3352,10245"/>
 <path fill="none" stroke="rgb(179,179,179)" stroke-linejoin="round" d="M 3202,10245 L 3352,10245"/>
 <path fill="none" stroke="rgb(179,179,179)" stroke-linejoin="round" d="M 3202,8332 L 3352,8332"/>
 <path fill="none" stroke="rgb(179,179,179)" stroke-linejoin="round" d="M 3202,8332 L 3352,8332"/>
 <path fill="none" stroke="rgb(179,179,179)" stroke-linejoin="round" d="M 3202,6417 L 3352,6417"/>
 <path fill="none" stroke="rgb(179,179,179)" stroke-linejoin="round" d="M 3202,6417 L 3352,6417"/>
 <path fill="none" stroke="rgb(179,179,179)" stroke-linejoin="round" d="M 3202,4503 L 3352,4503"/>
 <path fill="none" stroke="rgb(179,179,179)" stroke-linejoin="round" d="M 3202,4503 L 3352,4503"/>
 <path fill="none" stroke="rgb(179,179,179)" stroke-linejoin="round" d="M 3202,2588 L 3352,2588"/>
 <path fill="none" stroke="rgb(179,179,179)" stroke-linejoin="round" d="M 3202,2588 L 3352,2588"/>
 <path fill="none" stroke="rgb(179,179,179)" stroke-linejoin="round" d="M 3202,673 L 3352,673"/>
 <path fill="none" stroke="rgb(179,179,179)" stroke-linejoin="round" d="M 3202,673 L 3352,673"/>
 <path fill="none" stroke="rgb(179,179,179)" stroke-linejoin="round" d="M 3352,14075 L 3352,673"/>
 <path fill="none" stroke="rgb(255,211,32)" stroke-width="80" stroke-linejoin="round" d="M 4588,6759 L 4701,5888 7564,4108 7624,5657 7797,5396 7943,4927 8457,5218 8812,4349 8899,7056 8949,4295 9422,4046 9456,5857 9571,6208 9688,3267 9854,5892 9907,3384 10020,4336 10020,4372 10098,5140 10166,4641 10214,7312 10274,5335 10331,3989 10462,4568 10473,4242 10512,3739 10591,7155 10612,4656 10737,7037 10811,5095 10884,6777 10920,7639 10930,6968 10961,6974 10993,4676 11075,3801 11293,3809 11293,3804 11293,3775 11293,3807 11293,3788 11293,3755 11510,6963 11568,4419 11568,4450 11568,4420 11568,4481 11696,3367 11696,3137 11818,4308 11818,4357 11818,4332 11818,4319 11832,4909 12041,4318 12113,3694 12650,4126 12754,7820 13173,3238 13355,7871 13693,6682 14290,4943 15320,4822 15349,6510 15697,7693 16208,4519 17883,7777 19998,6240 20147,6021"/>
 <path fill="none" stroke="rgb(255,66,14)" stroke-width="80" stroke-linejoin="round" d="M 4588,8543 L 4701,7439 7564,7847 7624,6406 7797,6390 7943,6974 8457,6888 8812,7129 8899,7844 8949,9048 9422,4912 9456,6674 9571,7158 9688,7186 9854,6780 9907,4881 10020,7719 10020,7733 10098,7665 10166,7480 10214,8253 10214,8248 10274,6971 10331,2426 10462,7851 10473,7769 10512,4927 10591,7258 10612,5838 10737,9869 10811,7912 10884,6237 10920,9610 10930,7564 10961,9976 10993,7924 11075,10188 11280,7501 11293,10554 11293,10558 11510,10357 11568,11397 11696,3376 11696,2872 11818,11753 11818,11746 11818,11759 11832,5190 12041,5165 12113,5244 12650,5869 12754,11293 13173,1903 13355,11953 13693,12890 14290,11666 15320,11423 15349,13642 15697,11962 16208,13434 17883,13868 19998,14025 20147,14044"/>
 <path fill="none" stroke="rgb(0,69,134)" stroke-width="80" stroke-linejoin="round" d="M 4588,7147 L 4701,5960 7564,3353 7624,5092 7797,4724 7943,3963 8457,4033 8812,3596 8899,6680 8949,3938 9422,3209 9456,5315 9571,5853 9688,2997 9854,5050 9907,2825 10020,3745 10020,3685 10098,4180 10166,3778 10214,7285 10274,4435 10331,3896 10462,3860 10473,3383 10512,3104 10591,7191 10612,3882 10737,6998 10811,4050 10884,6796 10920,7977 10930,6933 10961,6960 10993,3807 11075,3211 11280,4261 11293,3249 11293,3191 11293,3216 11293,3191 11510,7027 11568,3865 11568,3824 11568,3808 11696,2724 11696,2503 11818,3789 11818,3776 11818,3728 11818,3765 11832,4437 12041,3677 12113,3054 12650,3505 12754,8275 13173,2535 13355,8042 13693,7093 14290,4090 15320,3878 15349,6223 15697,8122 16208,3435 17883,8070 19998,5957 20147,6040"/>
 <text class="TextShape"><tspan class="TextParagraph" font-family="Liberation Sans, sans-serif" font-size="564px" font-weight="400"><tspan class="TextPosition" x="2795" y="14854"><tspan fill="rgb(0,0,0)" stroke="none">0.01</tspan></tspan></tspan></text>
 <text class="TextShape"><tspan class="TextParagraph" font-family="Liberation Sans, sans-serif" font-size="564px" font-weight="400"><tspan class="TextPosition" x="7349" y="14854"><tspan fill="rgb(0,0,0)" stroke="none">0.1</tspan></tspan></tspan></text>
 <text class="TextShape"><tspan class="TextParagraph" font-family="Liberation Sans, sans-serif" font-size="564px" font-weight="400"><tspan class="TextPosition" x="11982" y="14854"><tspan fill="rgb(0,0,0)" stroke="none">1</tspan></tspan></tspan></text>
 <text class="TextShape"><tspan class="TextParagraph" font-family="Liberation Sans, sans-serif" font-size="564px" font-weight="400"><tspan class="TextPosition" x="16217" y="14854"><tspan fill="rgb(0,0,0)" stroke="none">10</tspan></tspan></tspan></text>
 <text class="TextShape"><tspan class="TextParagraph" font-family="Liberation Sans, sans-serif" font-size="564px" font-weight="400"><tspan class="TextPosition" x="20453" y="14854"><tspan fill="rgb(0,0,0)" stroke="none">100</tspan></tspan></tspan></text>
 <text class="TextShape"><tspan class="TextParagraph" font-family="Liberation Sans, sans-serif" font-size="564px" font-weight="400"><tspan class="TextPosition" x="2784" y="14275"><tspan fill="rgb(0,0,0)" stroke="none">0</tspan></tspan></tspan></text>
 <text class="TextShape"><tspan class="TextParagraph" font-family="Liberation Sans, sans-serif" font-size="564px" font-weight="400"><tspan class="TextPosition" x="2784" y="12360"><tspan fill="rgb(0,0,0)" stroke="none">5</tspan></tspan></tspan></text>
 <text class="TextShape"><tspan class="TextParagraph" font-family="Liberation Sans, sans-serif" font-size="564px" font-weight="400"><tspan class="TextPosition" x="2467" y="10445"><tspan fill="rgb(0,0,0)" stroke="none">10</tspan></tspan></tspan></text>
 <text class="TextShape"><tspan class="TextParagraph" font-family="Liberation Sans, sans-serif" font-size="564px" font-weight="400"><tspan class="TextPosition" x="2467" y="8531"><tspan fill="rgb(0,0,0)" stroke="none">15</tspan></tspan></tspan></text>
 <text class="TextShape"><tspan class="TextParagraph" font-family="Liberation Sans, sans-serif" font-size="564px" font-weight="400"><tspan class="TextPosition" x="2467" y="6616"><tspan fill="rgb(0,0,0)" stroke="none">20</tspan></tspan></tspan></text>
 <text class="TextShape"><tspan class="TextParagraph" font-family="Liberation Sans, sans-serif" font-size="564px" font-weight="400"><tspan class="TextPosition" x="2467" y="4702"><tspan fill="rgb(0,0,0)" stroke="none">25</tspan></tspan></tspan></text>
 <text class="TextShape"><tspan class="TextParagraph" font-family="Liberation Sans, sans-serif" font-size="564px" font-weight="400"><tspan class="TextPosition" x="2467" y="2787"><tspan fill="rgb(0,0,0)" stroke="none">30</tspan></tspan></tspan></text>
 <text class="TextShape"><tspan class="TextParagraph" font-family="Liberation Sans, sans-serif" font-size="564px" font-weight="400"><tspan class="TextPosition" x="2467" y="872"><tspan fill="rgb(0,0,0)" stroke="none">35</tspan></tspan></tspan></text>
 <path fill="none" stroke="rgb(0,69,134)" stroke-width="80" stroke-linejoin="round" d="M 22147,7833 L 22947,7833"/>
 <path fill="none" stroke="rgb(255,66,14)" stroke-width="80" stroke-linejoin="round" d="M 22147,8607 L 22947,8607"/>
 <path fill="none" stroke="rgb(255,211,32)" stroke-width="80" stroke-linejoin="round" d="M 22147,9380 L 22947,9380"/>
 <text class="TextShape"><tspan class="TextParagraph" font-family="Liberation Sans, sans-serif" font-size="564px" font-weight="400"><tspan class="TextPosition" x="23071" y="8031"><tspan fill="rgb(0,0,0)" stroke="none">Merge-based</tspan></tspan></tspan></text>
 <text class="TextShape"><tspan class="TextParagraph" font-family="Liberation Sans, sans-serif" font-size="564px" font-weight="400"><tspan class="TextPosition" x="23071" y="8804"><tspan fill="rgb(0,0,0)" stroke="none">Row splitting</tspan></tspan></tspan></text>
 <text class="TextShape"><tspan class="TextParagraph" font-family="Liberation Sans, sans-serif" font-size="564px" font-weight="400"><tspan class="TextPosition" x="23071" y="9578"><tspan fill="rgb(0,0,0)" stroke="none">Nonzero splitting</tspan></tspan></tspan></text>
 <text class="TextShape"><tspan class="TextParagraph" font-family="Liberation Sans, sans-serif" font-size="847px" font-weight="400"><tspan class="TextPosition" x="7703" y="16354"><tspan fill="rgb(0,0,0)" stroke="none">Coefficient of Variation</tspan></tspan></tspan></text>
 <text class="TextShape"><tspan class="TextParagraph" font-family="Liberation Sans, sans-serif" font-size="847px" font-weight="400"><tspan class="TextPosition" x="1472" y="11899" transform="translate(1472,11899) rotate(-90) translate(-1472,-11899)"><tspan fill="rgb(0,0,0)" stroke="none">Performance (GFlops)</tspan></tspan></tspan></text>
</svg>